<?xml version="1.0" encoding="UTF-8" standalone="no"?>
<!-- Created with Inkscape (http://www.inkscape.org/) -->

<svg
   xmlns:dc="http://purl.org/dc/elements/1.1/"
   xmlns:cc="http://creativecommons.org/ns#"
   xmlns:rdf="http://www.w3.org/1999/02/22-rdf-syntax-ns#"
   xmlns:svg="http://www.w3.org/2000/svg"
   xmlns="http://www.w3.org/2000/svg"
   xmlns:xlink="http://www.w3.org/1999/xlink"
   xmlns:sodipodi="http://sodipodi.sourceforge.net/DTD/sodipodi-0.dtd"
   xmlns:inkscape="http://www.inkscape.org/namespaces/inkscape"
   id="svg2"
   version="1.1"
   inkscape:version="0.92.2 5c3e80d, 2017-08-06"
   xml:space="preserve"
   width="748.21002"
   height="748.21002"
   viewBox="0 0 748.21002 748.21002"
   sodipodi:docname="powered_by_butterfly.svg"
   inkscape:export-filename="/Users/facarvalho/dev/butterfly/butterfly/docs/img/logo/powered_by_butterfly.png"
   inkscape:export-xdpi="96"
   inkscape:export-ydpi="96"><metadata
     id="metadata8"><rdf:RDF><cc:Work
         rdf:about=""><dc:format>image/svg+xml</dc:format><dc:type
           rdf:resource="http://purl.org/dc/dcmitype/StillImage" /><dc:title /></cc:Work></rdf:RDF></metadata><defs
     id="defs6"><inkscape:perspective
       sodipodi:type="inkscape:persp3d"
       inkscape:vp_x="0 : 374.10501 : 1"
       inkscape:vp_y="0 : 1000 : 0"
       inkscape:vp_z="748.21002 : 374.10501 : 1"
       inkscape:persp3d-origin="374.10501 : 249.40334 : 1"
       id="perspective5354" /><clipPath
       clipPathUnits="userSpaceOnUse"
       id="clipPath16"><path
         d="m 377.992,256.318 12.131,8.412 20.734,43.444 -109.92,73.948 77.055,-125.804 z"
         id="path18"
         inkscape:connector-curvature="0" /></clipPath><linearGradient
       x1="0"
       y1="0"
       x2="1"
       y2="0"
       gradientUnits="userSpaceOnUse"
       gradientTransform="matrix(109.92122,0,0,-109.92122,300.93652,319.22006)"
       spreadMethod="pad"
       id="linearGradient24"><stop
         style="stop-opacity:1;stop-color:#dd1865"
         offset="0"
         id="stop26" /><stop
         style="stop-opacity:1;stop-color:#642b80"
         offset="1"
         id="stop28" /></linearGradient><clipPath
       clipPathUnits="userSpaceOnUse"
       id="clipPath40"><path
         d="m 410.857,308.174 -42.968,44.968 -66.952,28.98 109.92,-73.948 z"
         id="path42"
         inkscape:connector-curvature="0" /></clipPath><linearGradient
       x1="0"
       y1="0"
       x2="1"
       y2="0"
       gradientUnits="userSpaceOnUse"
       gradientTransform="matrix(109.92122,0,0,-109.92122,300.93652,345.14822)"
       spreadMethod="pad"
       id="linearGradient46"><stop
         style="stop-opacity:1;stop-color:#dd1865"
         offset="0"
         id="stop48" /><stop
         style="stop-opacity:1;stop-color:#642b80"
         offset="1"
         id="stop50" /></linearGradient><clipPath
       clipPathUnits="userSpaceOnUse"
       id="clipPath62"><path
         d="m 367.889,353.142 42.968,7.994 -109.92,20.986 66.952,-28.98 z"
         id="path64"
         inkscape:connector-curvature="0" /></clipPath><linearGradient
       x1="0"
       y1="0"
       x2="1"
       y2="0"
       gradientUnits="userSpaceOnUse"
       gradientTransform="matrix(109.92122,0,0,-109.92122,300.93652,367.63211)"
       spreadMethod="pad"
       id="linearGradient68"><stop
         style="stop-opacity:1;stop-color:#dd1865"
         offset="0"
         id="stop70" /><stop
         style="stop-opacity:1;stop-color:#642b80"
         offset="1"
         id="stop72" /></linearGradient><clipPath
       clipPathUnits="userSpaceOnUse"
       id="clipPath84"><path
         d="m 411.857,361.136 22.984,95.932 -133.904,-74.946 110.92,-20.986 z"
         id="path86"
         inkscape:connector-curvature="0" /></clipPath><linearGradient
       x1="0"
       y1="0"
       x2="1"
       y2="0"
       gradientUnits="userSpaceOnUse"
       gradientTransform="matrix(133.90402,0,0,-133.90402,300.93652,409.10239)"
       spreadMethod="pad"
       id="linearGradient90"><stop
         style="stop-opacity:1;stop-color:#dd1865"
         offset="0"
         id="stop92" /><stop
         style="stop-opacity:1;stop-color:#642b80"
         offset="1"
         id="stop94" /></linearGradient><clipPath
       clipPathUnits="userSpaceOnUse"
       id="clipPath106"><path
         d="m 434.841,457.068 -80.943,-14.989 -52.961,-59.957 133.904,74.946 z"
         id="path108"
         inkscape:connector-curvature="0" /></clipPath><linearGradient
       x1="0"
       y1="0"
       x2="1"
       y2="0"
       gradientUnits="userSpaceOnUse"
       gradientTransform="matrix(133.90402,0,0,-133.90402,300.93652,419.59488)"
       spreadMethod="pad"
       id="linearGradient112"><stop
         style="stop-opacity:1;stop-color:#dd1865"
         offset="0"
         id="stop114" /><stop
         style="stop-opacity:1;stop-color:#642b80"
         offset="1"
         id="stop116" /></linearGradient><clipPath
       clipPathUnits="userSpaceOnUse"
       id="clipPath128"><path
         d="m 272.397,335.771 28.493,0 0,-15.766 -39.531,-64.202 -38.056,0.915 49.094,79.053 z"
         id="path130"
         inkscape:connector-curvature="0" /></clipPath><linearGradient
       x1="0"
       y1="0"
       x2="1"
       y2="0"
       gradientUnits="userSpaceOnUse"
       gradientTransform="matrix(-77.586571,0,0,-77.586571,300.88953,295.78754)"
       spreadMethod="pad"
       id="linearGradient134"><stop
         style="stop-opacity:1;stop-color:#dd1865"
         offset="0"
         id="stop136" /><stop
         style="stop-opacity:1;stop-color:#642b80"
         offset="1"
         id="stop138" /></linearGradient><clipPath
       clipPathUnits="userSpaceOnUse"
       id="clipPath150"><path
         d="m 329.327,335.771 -28.437,0 0,-15.766 39.576,-64.202 37.526,0.515 -48.665,79.453 z"
         id="path152"
         inkscape:connector-curvature="0" /></clipPath><linearGradient
       x1="0"
       y1="0"
       x2="1"
       y2="0"
       gradientUnits="userSpaceOnUse"
       gradientTransform="matrix(77.103111,0,0,-77.103111,300.88953,295.78754)"
       spreadMethod="pad"
       id="linearGradient156"><stop
         style="stop-opacity:1;stop-color:#dd1865"
         offset="0"
         id="stop158" /><stop
         style="stop-opacity:1;stop-color:#642b80"
         offset="1"
         id="stop160" /></linearGradient><clipPath
       clipPathUnits="userSpaceOnUse"
       id="clipPath172"><path
         d="m 223.303,256.718 -11.553,8.012 -20.734,43.444 109.921,73.948 -77.634,-125.404 z"
         id="path174"
         inkscape:connector-curvature="0" /></clipPath><linearGradient
       x1="0"
       y1="0"
       x2="1"
       y2="0"
       gradientUnits="userSpaceOnUse"
       gradientTransform="matrix(-109.92122,0,0,-109.92122,300.93652,319.42026)"
       spreadMethod="pad"
       id="linearGradient178"><stop
         style="stop-opacity:1;stop-color:#dd1865"
         offset="0"
         id="stop180" /><stop
         style="stop-opacity:1;stop-color:#642b80"
         offset="1"
         id="stop182" /></linearGradient><clipPath
       clipPathUnits="userSpaceOnUse"
       id="clipPath194"><path
         d="m 191.016,308.174 42.968,44.968 66.953,28.98 -109.921,-73.948 z"
         id="path196"
         inkscape:connector-curvature="0" /></clipPath><linearGradient
       x1="0"
       y1="0"
       x2="1"
       y2="0"
       gradientUnits="userSpaceOnUse"
       gradientTransform="matrix(-109.92122,0,0,-109.92122,300.93652,345.14822)"
       spreadMethod="pad"
       id="linearGradient200"><stop
         style="stop-opacity:1;stop-color:#dd1865"
         offset="0"
         id="stop202" /><stop
         style="stop-opacity:1;stop-color:#642b80"
         offset="1"
         id="stop204" /></linearGradient><clipPath
       clipPathUnits="userSpaceOnUse"
       id="clipPath216"><path
         d="m 233.984,353.142 -42.968,7.994 109.921,20.986 -66.953,-28.98 z"
         id="path218"
         inkscape:connector-curvature="0" /></clipPath><linearGradient
       x1="0"
       y1="0"
       x2="1"
       y2="0"
       gradientUnits="userSpaceOnUse"
       gradientTransform="matrix(-109.92122,0,0,-109.92122,300.93652,367.63211)"
       spreadMethod="pad"
       id="linearGradient222"><stop
         style="stop-opacity:1;stop-color:#dd1865"
         offset="0"
         id="stop224" /><stop
         style="stop-opacity:1;stop-color:#642b80"
         offset="1"
         id="stop226" /></linearGradient><clipPath
       clipPathUnits="userSpaceOnUse"
       id="clipPath238"><path
         d="M 190.016,361.136 167.032,457.068 300.937,382.122 190.016,361.136 Z"
         id="path240"
         inkscape:connector-curvature="0" /></clipPath><linearGradient
       x1="0"
       y1="0"
       x2="1"
       y2="0"
       gradientUnits="userSpaceOnUse"
       gradientTransform="matrix(-133.90402,0,0,-133.90402,300.93652,409.10239)"
       spreadMethod="pad"
       id="linearGradient244"><stop
         style="stop-opacity:1;stop-color:#dd1865"
         offset="0"
         id="stop246" /><stop
         style="stop-opacity:1;stop-color:#642b80"
         offset="1"
         id="stop248" /></linearGradient><clipPath
       clipPathUnits="userSpaceOnUse"
       id="clipPath260"><path
         d="m 167.032,457.068 80.943,-14.989 52.962,-59.957 -133.905,74.946 z"
         id="path262"
         inkscape:connector-curvature="0" /></clipPath><linearGradient
       x1="0"
       y1="0"
       x2="1"
       y2="0"
       gradientUnits="userSpaceOnUse"
       gradientTransform="matrix(-133.90402,0,0,-133.90402,300.93652,419.59488)"
       spreadMethod="pad"
       id="linearGradient266"><stop
         style="stop-opacity:1;stop-color:#dd1865"
         offset="0"
         id="stop268" /><stop
         style="stop-opacity:1;stop-color:#642b80"
         offset="1"
         id="stop270" /></linearGradient><clipPath
       clipPathUnits="userSpaceOnUse"
       id="clipPath282"><path
         d="m 282.813,418.666 18.459,29.978 18.458,-29.978 -36.917,0 z"
         id="path284"
         inkscape:connector-curvature="0" /></clipPath><linearGradient
       x1="0"
       y1="0"
       x2="1"
       y2="0"
       gradientUnits="userSpaceOnUse"
       gradientTransform="matrix(0.0798139,-26.215998,-26.215998,-0.0798139,301.19751,443.21231)"
       spreadMethod="pad"
       id="linearGradient288"><stop
         style="stop-opacity:1;stop-color:#dd1865"
         offset="0"
         id="stop290" /><stop
         style="stop-opacity:1;stop-color:#922676"
         offset="0.584387"
         id="stop292" /><stop
         style="stop-opacity:1;stop-color:#642b80"
         offset="1"
         id="stop294" /></linearGradient><clipPath
       clipPathUnits="userSpaceOnUse"
       id="clipPath306"><path
         d="m 0,598.568 598.568,0 L 598.568,0 0,0 0,598.568 Z"
         id="path308"
         inkscape:connector-curvature="0" /></clipPath><linearGradient
       inkscape:collect="always"
       xlink:href="#linearGradient266"
       id="linearGradient5386"
       x1="102"
       y1="-424.39996"
       x2="414"
       y2="-424.39996"
       gradientUnits="userSpaceOnUse"
       gradientTransform="matrix(0.41904575,0,0,0.67763184,185.9341,6.0027686)" /><linearGradient
       inkscape:collect="always"
       xlink:href="#linearGradient266"
       id="linearGradient5493"
       gradientUnits="userSpaceOnUse"
       gradientTransform="matrix(-133.90402,0,0,-133.90402,300.93652,419.59488)"
       x1="0"
       y1="0"
       x2="1"
       y2="0"
       spreadMethod="pad" /></defs><sodipodi:namedview
     pagecolor="#ffffff"
     bordercolor="#666666"
     borderopacity="1"
     objecttolerance="10"
     gridtolerance="10"
     guidetolerance="10"
     inkscape:pageopacity="0"
     inkscape:pageshadow="2"
     inkscape:window-width="1950"
     inkscape:window-height="894"
     id="namedview4"
     showgrid="false"
     inkscape:zoom="1"
     inkscape:cx="361"
     inkscape:cy="339"
     inkscape:window-x="129"
     inkscape:window-y="49"
     inkscape:window-maximized="0"
     inkscape:current-layer="g4220"
     inkscape:snap-page="false"
     inkscape:snap-to-guides="false"
     inkscape:snap-grids="false" /><g
     id="g10"
     inkscape:groupmode="layer"
     inkscape:label="butterfly"
     transform="matrix(1.25,0,0,-1.25,0,748.21)"><g
       id="g4220"><g
         id="g5713"
         transform="translate(21.263837,14.885571)"
         inkscape:export-xdpi="96"
         inkscape:export-ydpi="96"><rect
           transform="scale(1,-1)"
           y="-301.43817"
           x="226.67209"
           height="34.079502"
           width="102.69617"
           id="rect5604"
           style="fill:#ffffff;fill-opacity:1;stroke:#000000;stroke-width:0;stroke-miterlimit:4;stroke-dasharray:none;stroke-opacity:1" /><g
           transform="matrix(0.76698362,0,0,0.76698362,52.490239,68.427989)"
           inkscape:export-ydpi="96"
           inkscape:export-xdpi="96"
           id="g5600"><rect
             style="fill:#ffffff;fill-opacity:1;stroke:url(#linearGradient5386);stroke-width:0.42630225;stroke-opacity:1"
             id="rect5370"
             width="130.40704"
             height="39.5737"
             x="228.84439"
             y="-301.371"
             transform="scale(1,-1)" /><g
             id="g5491"
             transform="matrix(0.34722224,0,0,0.34722224,192.40291,186.27485)"><g
               id="g4101"
               transform="matrix(0.40011398,0,0,0.40011398,293.67511,131.87636)"
               inkscape:export-xdpi="16.653551"
               inkscape:export-ydpi="16.653551"><g
                 id="g12"><g
                   clip-path="url(#clipPath16)"
                   id="g14"><g
                     id="g20"><g
                       id="g22"><path
                         inkscape:connector-curvature="0"
                         id="path30"
                         style="fill:url(#linearGradient24);stroke:none"
                         d="m 377.992,256.318 12.131,8.412 20.734,43.444 -109.92,73.948 z" /></g></g></g></g><g
                 transform="translate(377.9922,256.318)"
                 id="g32"><path
                   inkscape:connector-curvature="0"
                   id="path34"
                   style="fill:none;stroke:#622a82;stroke-width:0.25;stroke-linecap:butt;stroke-linejoin:miter;stroke-miterlimit:1;stroke-dasharray:none;stroke-opacity:1"
                   d="M 0,0 12.131,8.412 32.865,51.856 -77.056,125.804 Z" /></g><g
                 id="g36"><g
                   clip-path="url(#clipPath40)"
                   id="g38"><g
                     id="g44"><path
                       inkscape:connector-curvature="0"
                       id="path52"
                       style="fill:url(#linearGradient46);stroke:none"
                       d="m 410.857,308.174 -42.968,44.968 -66.952,28.98 z" /></g></g></g><g
                 transform="translate(410.8574,308.1745)"
                 id="g54"><path
                   inkscape:connector-curvature="0"
                   id="path56"
                   style="fill:none;stroke:#622a82;stroke-width:0.25;stroke-linecap:butt;stroke-linejoin:miter;stroke-miterlimit:1;stroke-dasharray:none;stroke-opacity:1"
                   d="m 0,0 -42.969,44.968 -66.952,28.979 z" /></g><g
                 id="g58"><g
                   clip-path="url(#clipPath62)"
                   id="g60"><g
                     id="g66"><path
                       inkscape:connector-curvature="0"
                       id="path74"
                       style="fill:url(#linearGradient68);stroke:none"
                       d="m 367.889,353.142 42.968,7.994 -109.92,20.986 z" /></g></g></g><g
                 transform="translate(367.8887,353.1422)"
                 id="g76"><path
                   inkscape:connector-curvature="0"
                   id="path78"
                   style="fill:none;stroke:#622a82;stroke-width:0.25;stroke-linecap:butt;stroke-linejoin:miter;stroke-miterlimit:1;stroke-dasharray:none;stroke-opacity:1"
                   d="M 0,0 42.969,7.994 -66.952,28.979 Z" /></g><g
                 id="g80"><g
                   clip-path="url(#clipPath84)"
                   id="g82"><g
                     id="g88"><path
                       inkscape:connector-curvature="0"
                       id="path96"
                       style="fill:url(#linearGradient90);stroke:none"
                       d="m 411.857,361.136 22.984,95.932 -133.904,-74.946 z" /></g></g></g><g
                 transform="translate(411.8574,361.1364)"
                 id="g98"><path
                   inkscape:connector-curvature="0"
                   id="path100"
                   style="fill:none;stroke:#622a82;stroke-width:0.25;stroke-linecap:butt;stroke-linejoin:miter;stroke-miterlimit:1;stroke-dasharray:none;stroke-opacity:1"
                   d="M 0,0 22.983,95.932 -110.921,20.985 Z" /></g><g
                 id="g102"><g
                   clip-path="url(#clipPath106)"
                   id="g104"><g
                     id="g110"><path
                       inkscape:connector-curvature="0"
                       id="path118"
                       style="fill:url(#linearGradient112);stroke:none"
                       d="M 434.841,457.068 353.898,442.079 300.937,382.122 Z" /></g></g></g><g
                 transform="translate(434.8408,457.068)"
                 id="g120"><path
                   inkscape:connector-curvature="0"
                   id="path122"
                   style="fill:none;stroke:#622a82;stroke-width:0.25;stroke-linecap:butt;stroke-linejoin:miter;stroke-miterlimit:1;stroke-dasharray:none;stroke-opacity:1"
                   d="m 0,0 -80.942,-14.989 -52.962,-59.957 z" /></g><g
                 id="g124"><g
                   clip-path="url(#clipPath128)"
                   id="g126"><g
                     id="g132"><path
                       inkscape:connector-curvature="0"
                       id="path140"
                       style="fill:url(#linearGradient134);stroke:none"
                       d="m 272.397,335.771 h 28.493 v -15.766 l -39.531,-64.202 -38.056,0.915 z" /></g></g></g><g
                 transform="translate(272.3975,335.7711)"
                 id="g142"><path
                   inkscape:connector-curvature="0"
                   id="path144"
                   style="fill:none;stroke:#622a82;stroke-width:0.25;stroke-linecap:butt;stroke-linejoin:miter;stroke-miterlimit:1;stroke-dasharray:none;stroke-opacity:1"
                   d="m 0,0 h 28.492 v -15.767 l -39.53,-64.201 -38.057,0.915 z" /></g><g
                 id="g146"><g
                   clip-path="url(#clipPath150)"
                   id="g148"><g
                     id="g154"><path
                       inkscape:connector-curvature="0"
                       id="path162"
                       style="fill:url(#linearGradient156);stroke:none"
                       d="M 329.327,335.771 H 300.89 v -15.766 l 39.576,-64.202 37.526,0.515 z" /></g></g></g><g
                 transform="translate(329.3271,335.7711)"
                 id="g164"><path
                   inkscape:connector-curvature="0"
                   id="path166"
                   style="fill:none;stroke:#622a82;stroke-width:0.25;stroke-linecap:butt;stroke-linejoin:miter;stroke-miterlimit:1;stroke-dasharray:none;stroke-opacity:1"
                   d="m 0,0 h -28.437 v -15.767 l 39.576,-64.201 37.526,0.515 z" /></g><g
                 id="g168"><g
                   clip-path="url(#clipPath172)"
                   id="g170"><g
                     id="g176"><path
                       inkscape:connector-curvature="0"
                       id="path184"
                       style="fill:url(#linearGradient178);stroke:none"
                       d="m 223.303,256.718 -11.553,8.012 -20.734,43.444 109.921,73.948 z" /></g></g></g><g
                 transform="translate(223.3027,256.7184)"
                 id="g186"><path
                   inkscape:connector-curvature="0"
                   id="path188"
                   style="fill:none;stroke:#622a82;stroke-width:0.25;stroke-linecap:butt;stroke-linejoin:miter;stroke-miterlimit:1;stroke-dasharray:none;stroke-opacity:1"
                   d="M 0,0 -11.553,8.012 -32.287,51.456 77.634,125.403 Z" /></g><g
                 id="g190"><g
                   clip-path="url(#clipPath194)"
                   id="g192"><g
                     id="g198"><path
                       inkscape:connector-curvature="0"
                       id="path206"
                       style="fill:url(#linearGradient200);stroke:none"
                       d="m 191.016,308.174 42.968,44.968 66.953,28.98 z" /></g></g></g><g
                 transform="translate(191.0156,308.1745)"
                 id="g208"><path
                   inkscape:connector-curvature="0"
                   id="path210"
                   style="fill:none;stroke:#622a82;stroke-width:0.25;stroke-linecap:butt;stroke-linejoin:miter;stroke-miterlimit:1;stroke-dasharray:none;stroke-opacity:1"
                   d="m 0,0 42.969,44.968 66.952,28.979 z" /></g><g
                 id="g212"><g
                   clip-path="url(#clipPath216)"
                   id="g214"><g
                     id="g220"><path
                       inkscape:connector-curvature="0"
                       id="path228"
                       style="fill:url(#linearGradient222);stroke:none"
                       d="m 233.984,353.142 -42.968,7.994 109.921,20.986 z" /></g></g></g><g
                 transform="translate(233.9844,353.1422)"
                 id="g230"><path
                   inkscape:connector-curvature="0"
                   id="path232"
                   style="fill:none;stroke:#622a82;stroke-width:0.25;stroke-linecap:butt;stroke-linejoin:miter;stroke-miterlimit:1;stroke-dasharray:none;stroke-opacity:1"
                   d="M 0,0 -42.969,7.994 66.952,28.979 Z" /></g><g
                 id="g234"><g
                   clip-path="url(#clipPath238)"
                   id="g236"><g
                     id="g242"><path
                       inkscape:connector-curvature="0"
                       id="path250"
                       style="fill:url(#linearGradient244);stroke:none"
                       d="m 190.016,361.136 -22.984,95.932 133.905,-74.946 z" /></g></g></g><g
                 transform="translate(190.0156,361.1364)"
                 id="g252"><path
                   inkscape:connector-curvature="0"
                   id="path254"
                   style="fill:none;stroke:#622a82;stroke-width:0.25;stroke-linecap:butt;stroke-linejoin:miter;stroke-miterlimit:1;stroke-dasharray:none;stroke-opacity:1"
                   d="M 0,0 -22.983,95.932 110.921,20.985 Z" /></g><g
                 id="g256"><g
                   clip-path="url(#clipPath260)"
                   id="g258"><g
                     id="g264"><path
                       inkscape:connector-curvature="0"
                       id="path272"
                       style="fill:url(#linearGradient5493);stroke:none"
                       d="m 167.032,457.068 80.943,-14.989 52.962,-59.957 z" /></g></g></g><g
                 transform="translate(167.0322,457.068)"
                 id="g274"><path
                   inkscape:connector-curvature="0"
                   id="path276"
                   style="fill:none;stroke:#622a82;stroke-width:0.25;stroke-linecap:butt;stroke-linejoin:miter;stroke-miterlimit:1;stroke-dasharray:none;stroke-opacity:1"
                   d="m 0,0 80.942,-14.989 52.962,-59.957 z" /></g><g
                 id="g278"><g
                   clip-path="url(#clipPath282)"
                   id="g280"><g
                     id="g286"><path
                       inkscape:connector-curvature="0"
                       id="path296"
                       style="fill:url(#linearGradient288);stroke:none"
                       d="m 282.813,418.666 18.459,29.978 18.458,-29.978 z" /></g></g></g><g
                 transform="translate(282.8135,418.6657)"
                 id="g298"><path
                   inkscape:connector-curvature="0"
                   id="path300"
                   style="fill:none;stroke:#622a82;stroke-width:0.25;stroke-linecap:butt;stroke-linejoin:miter;stroke-miterlimit:1;stroke-dasharray:none;stroke-opacity:1"
                   d="M 0,0 18.459,29.979 36.917,0 Z" /></g></g><g
               transform="translate(245.6,-63.560777)"
               id="g5350"><g
                 inkscape:export-ydpi="33.307102"
                 inkscape:export-xdpi="33.307102"
                 transform="translate(-2.4775912,27.2)"
                 id="g4021"><g
                   id="g3941"
                   transform="matrix(0.94616774,0,0,0.94616774,-295.8688,115.38721)"><g
                     transform="translate(187.1924,179.6764)"
                     id="g310"><path
                       inkscape:connector-curvature="0"
                       id="path312"
                       style="fill:#622a82;fill-opacity:1;fill-rule:nonzero;stroke:none"
                       d="m 0,0 c 1.031,-0.422 2.343,-0.655 3.607,-0.655 3.888,0 6.511,2.856 6.511,7.447 0,3.701 -1.967,6.277 -5.48,6.277 C 2.857,13.069 1.031,12.414 0,11.617 Z M -6.979,30.964 0,31.854 V 16.302 c 1.405,1.358 3.842,2.67 6.887,2.67 6.276,0 10.399,-4.732 10.399,-11.805 0,-7.963 -5.762,-13.397 -13.585,-13.397 -3.842,0 -7.307,0.703 -10.68,2.295 z" /></g><g
                     transform="translate(237.1738,174.5241)"
                     id="g314"><path
                       inkscape:connector-curvature="0"
                       id="path316"
                       style="fill:#622a82;fill-opacity:1;fill-rule:nonzero;stroke:none"
                       d="m 0,0 -7.026,-0.984 v 2.577 c -1.499,-1.219 -4.03,-2.671 -7.355,-2.671 -5.059,0 -8.198,3.467 -8.198,8.386 v 16.301 h 7.026 V 8.993 c 0,-2.576 1.078,-4.169 3.842,-4.169 1.874,0 3.279,0.563 4.685,1.359 V 23.609 H 0 Z" /></g><g
                     transform="translate(250.2871,198.1335)"
                     id="g318"><path
                       inkscape:connector-curvature="0"
                       id="path320"
                       style="fill:#622a82;fill-opacity:1;fill-rule:nonzero;stroke:none"
                       d="M 0,0 V 5.012 L 7.027,5.949 V 0 h 8.151 L 14.335,-5.247 H 7.027 v -10.446 c 0,-2.202 1.359,-3.139 3.28,-3.139 2.013,0 3.372,0.234 5.527,1.171 v -5.621 c -2.062,-0.937 -4.169,-1.359 -6.887,-1.359 -4.918,0 -8.947,2.437 -8.947,8.105 V -5.247 H -3.278 V 0 Z" /></g><g
                     transform="translate(277.3623,198.1335)"
                     id="g322"><path
                       inkscape:connector-curvature="0"
                       id="path324"
                       style="fill:#622a82;fill-opacity:1;fill-rule:nonzero;stroke:none"
                       d="M 0,0 V 5.012 L 7.027,5.949 V 0 h 8.151 L 14.335,-5.247 H 7.027 v -10.446 c 0,-2.202 1.359,-3.139 3.279,-3.139 2.014,0 3.373,0.234 5.528,1.171 v -5.621 c -2.062,-0.937 -4.169,-1.359 -6.887,-1.359 -4.918,0 -8.947,2.437 -8.947,8.105 V -5.247 H -3.278 V 0 Z" /></g><g
                     transform="translate(308.5596,188.5299)"
                     id="g326"><path
                       inkscape:connector-curvature="0"
                       id="path328"
                       style="fill:#622a82;fill-opacity:1;fill-rule:nonzero;stroke:none"
                       d="m 0,0 h 9.556 v 0.187 c 0,2.436 -1.359,4.638 -4.31,4.638 C 2.67,4.825 0.608,3.139 0,0 m 7.12,-15.084 c -8.151,0 -13.772,5.153 -13.772,12.602 0,7.213 5.106,12.6 12.132,12.6 7.402,0 10.775,-5.527 10.775,-12.133 0,-0.608 0,-1.311 -0.094,-1.966 H 0.047 c 0.843,-3.655 4.169,-5.434 8.15,-5.434 2.062,0 4.169,0.28 6.746,1.451 v -5.433 c -2.342,-1.171 -4.778,-1.687 -7.823,-1.687" /></g><g
                     transform="translate(335.3525,173.9616)"
                     id="g330"><path
                       inkscape:connector-curvature="0"
                       id="path332"
                       style="fill:#622a82;fill-opacity:1;fill-rule:nonzero;stroke:none"
                       d="m 0,0 v 23.609 l 6.979,0.984 v -4.216 c 2.25,2.576 4.966,4.731 9.182,4.122 v -7.026 c -3.607,0.89 -7.167,-0.235 -9.182,-2.53 L 6.979,0 Z" /></g><g
                     transform="translate(369.7344,173.9616)"
                     id="g334"><path
                       inkscape:connector-curvature="0"
                       id="path336"
                       style="fill:#622a82;fill-opacity:1;fill-rule:nonzero;stroke:none"
                       d="m 0,0 h -7.026 v 18.925 h -3.233 v 5.247 h 3.233 v 1.358 c 0,7.167 4.45,12.039 11.898,12.039 1.452,0 2.717,-0.187 4.169,-0.656 v -5.48 C 7.776,31.761 7.027,31.854 5.903,31.854 2.062,31.854 0,29.605 0,25.718 V 24.172 H 6.98 L 6.137,18.925 H 0 Z" /></g><g
                     transform="translate(390.5508,210.6403)"
                     id="g338"><path
                       inkscape:connector-curvature="0"
                       id="path340"
                       style="fill:#622a82;fill-opacity:1;fill-rule:nonzero;stroke:none"
                       d="m 0,0 6.979,0.891 v -37.57 H 0 Z" /></g><g
                     transform="translate(406.71,198.1335)"
                     id="g342"><path
                       inkscape:connector-curvature="0"
                       id="path344"
                       style="fill:#622a82;fill-opacity:1;fill-rule:nonzero;stroke:none"
                       d="M 0,0 H 7.589 L 13.538,-14.522 19.347,0 H 26.14 L 15.459,-23.937 c -3.748,-8.479 -7.73,-11.431 -13.538,-11.431 -0.984,0 -2.108,0.187 -2.717,0.422 v 5.574 c 0.702,-0.233 1.639,-0.374 2.342,-0.374 3.701,0 5.808,1.92 8.385,7.963 z" /></g></g><text
                   xml:space="preserve"
                   style="font-style:normal;font-weight:normal;font-size:32px;line-height:1.25;font-family:sans-serif;letter-spacing:0px;word-spacing:0px;fill:#622a82;fill-opacity:1;stroke:none;stroke-width:0.80000001"
                   x="-128.26294"
                   y="-327.99997"
                   id="text4521"
                   transform="scale(1,-1)"><tspan
                     sodipodi:role="line"
                     id="tspan4519"
                     x="-128.26294"
                     y="-327.99997"
                     style="fill:#622a82;fill-opacity:1;stroke-width:0.80000001">powered by</tspan></text>
</g></g></g></g></g></g></g></svg>